<mxfile host="app.diagrams.net" agent="Mozilla/5.0 (Windows NT 10.0; Win64; x64) AppleWebKit/537.36 (KHTML, like Gecko) Chrome/132.0.0.0 Safari/537.36 Edg/132.0.0.0" version="26.0.10">
  <diagram name="Pagina-1" id="W_Iu-hmXkBeGcYxIIJNr">
    <mxGraphModel grid="1" page="1" gridSize="10" guides="1" tooltips="1" connect="1" arrows="1" fold="1" pageScale="1" pageWidth="1654" pageHeight="2336" math="0" shadow="0">
      <root>
        <mxCell id="0" />
        <mxCell id="1" parent="0" />
        <mxCell id="gfcT5T_3TDsyRO5DiEZ5-1" value="Proprietario" style="shape=umlActor;verticalLabelPosition=bottom;verticalAlign=top;html=1;outlineConnect=0;" vertex="1" parent="1">
          <mxGeometry x="640" y="1390" width="30" height="60" as="geometry" />
        </mxCell>
        <mxCell id="gfcT5T_3TDsyRO5DiEZ5-4" value="Meccanico" style="shape=umlActor;verticalLabelPosition=bottom;verticalAlign=top;html=1;outlineConnect=0;" vertex="1" parent="1">
          <mxGeometry x="635" y="860" width="30" height="60" as="geometry" />
        </mxCell>
        <mxCell id="gfcT5T_3TDsyRO5DiEZ5-6" value="Arbitro" style="shape=umlActor;verticalLabelPosition=bottom;verticalAlign=top;html=1;outlineConnect=0;" vertex="1" parent="1">
          <mxGeometry x="635" y="630" width="30" height="60" as="geometry" />
        </mxCell>
        <mxCell id="nlR87VBrG_4q2SOE0Lj9-1" value="Prenotazione gara secca" style="ellipse;whiteSpace=wrap;html=1;" vertex="1" parent="1">
          <mxGeometry x="370" y="240" width="120" height="80" as="geometry" />
        </mxCell>
        <mxCell id="nlR87VBrG_4q2SOE0Lj9-2" value="Prenotazione gara libera" style="ellipse;whiteSpace=wrap;html=1;" vertex="1" parent="1">
          <mxGeometry x="220" y="240" width="120" height="80" as="geometry" />
        </mxCell>
        <mxCell id="nlR87VBrG_4q2SOE0Lj9-3" value="Creazione gara" style="ellipse;whiteSpace=wrap;html=1;" vertex="1" parent="1">
          <mxGeometry x="520" y="240" width="120" height="80" as="geometry" />
        </mxCell>
        <mxCell id="nlR87VBrG_4q2SOE0Lj9-4" value="Creazione campionato" style="ellipse;whiteSpace=wrap;html=1;" vertex="1" parent="1">
          <mxGeometry x="670" y="240" width="120" height="80" as="geometry" />
        </mxCell>
        <mxCell id="nlR87VBrG_4q2SOE0Lj9-5" value="Creazione team" style="ellipse;whiteSpace=wrap;html=1;" vertex="1" parent="1">
          <mxGeometry x="817" y="240" width="120" height="80" as="geometry" />
        </mxCell>
        <mxCell id="nlR87VBrG_4q2SOE0Lj9-6" value="Inserimento gara nel campionato" style="ellipse;whiteSpace=wrap;html=1;" vertex="1" parent="1">
          <mxGeometry x="960" y="240" width="120" height="80" as="geometry" />
        </mxCell>
        <mxCell id="gfcT5T_3TDsyRO5DiEZ5-16" value="Organizzatore&lt;br&gt;di gara" style="shape=umlActor;verticalLabelPosition=bottom;verticalAlign=top;html=1;outlineConnect=0;" vertex="1" parent="1">
          <mxGeometry x="640" y="80" width="30" height="60" as="geometry" />
        </mxCell>
        <mxCell id="gfcT5T_3TDsyRO5DiEZ5-17" value="Gestore&lt;br&gt;Concessionaria" style="shape=umlActor;verticalLabelPosition=bottom;verticalAlign=top;html=1;outlineConnect=0;" vertex="1" parent="1">
          <mxGeometry x="640" y="1130" width="30" height="60" as="geometry" />
        </mxCell>
        <mxCell id="gfcT5T_3TDsyRO5DiEZ5-18" value="Utente" style="shape=umlActor;verticalLabelPosition=bottom;verticalAlign=top;html=1;outlineConnect=0;" vertex="1" parent="1">
          <mxGeometry x="640" y="370" width="30" height="60" as="geometry" />
        </mxCell>
        <mxCell id="nlR87VBrG_4q2SOE0Lj9-7" value="Visione tempi e inserimento penalitÃ " style="ellipse;whiteSpace=wrap;html=1;" vertex="1" parent="1">
          <mxGeometry x="590" y="750" width="120" height="80" as="geometry" />
        </mxCell>
        <mxCell id="nlR87VBrG_4q2SOE0Lj9-8" value="Aggiunta kart" style="ellipse;whiteSpace=wrap;html=1;" vertex="1" parent="1">
          <mxGeometry x="410" y="1000" width="120" height="80" as="geometry" />
        </mxCell>
        <mxCell id="nlR87VBrG_4q2SOE0Lj9-9" value="Rimozione kart" style="ellipse;whiteSpace=wrap;html=1;" vertex="1" parent="1">
          <mxGeometry x="590" y="1000" width="120" height="80" as="geometry" />
        </mxCell>
        <mxCell id="nlR87VBrG_4q2SOE0Lj9-10" value="Visione e aggiornamento manutenzione" style="ellipse;whiteSpace=wrap;html=1;" vertex="1" parent="1">
          <mxGeometry x="770" y="1000" width="120" height="80" as="geometry" />
        </mxCell>
        <mxCell id="nlR87VBrG_4q2SOE0Lj9-11" value="Registrazione utente" style="ellipse;whiteSpace=wrap;html=1;" vertex="1" parent="1">
          <mxGeometry x="290" y="490" width="120" height="80" as="geometry" />
        </mxCell>
        <mxCell id="nlR87VBrG_4q2SOE0Lj9-12" value="Login utente" style="ellipse;whiteSpace=wrap;html=1;" vertex="1" parent="1">
          <mxGeometry x="440" y="490" width="120" height="80" as="geometry" />
        </mxCell>
        <mxCell id="nlR87VBrG_4q2SOE0Lj9-13" value="Logout&lt;span style=&quot;background-color: transparent; color: light-dark(rgb(0, 0, 0), rgb(255, 255, 255));&quot;&gt;&amp;nbsp;utente&lt;/span&gt;" style="ellipse;whiteSpace=wrap;html=1;" vertex="1" parent="1">
          <mxGeometry x="590" y="490" width="120" height="80" as="geometry" />
        </mxCell>
        <mxCell id="nlR87VBrG_4q2SOE0Lj9-14" value="Acquisto di un kart" style="ellipse;whiteSpace=wrap;html=1;" vertex="1" parent="1">
          <mxGeometry x="740" y="490" width="120" height="80" as="geometry" />
        </mxCell>
        <mxCell id="nlR87VBrG_4q2SOE0Lj9-15" value="Acquisto di pezzi di ricambio" style="ellipse;whiteSpace=wrap;html=1;" vertex="1" parent="1">
          <mxGeometry x="890" y="490" width="120" height="80" as="geometry" />
        </mxCell>
        <mxCell id="nlR87VBrG_4q2SOE0Lj9-16" value="Visione del bilancio" style="ellipse;whiteSpace=wrap;html=1;" vertex="1" parent="1">
          <mxGeometry x="410" y="1550" width="120" height="80" as="geometry" />
        </mxCell>
        <mxCell id="nlR87VBrG_4q2SOE0Lj9-17" value="Aggiunta dipendenti" style="ellipse;whiteSpace=wrap;html=1;" vertex="1" parent="1">
          <mxGeometry x="590" y="1550" width="120" height="80" as="geometry" />
        </mxCell>
        <mxCell id="nlR87VBrG_4q2SOE0Lj9-18" value="Rimozione dipendenti" style="ellipse;whiteSpace=wrap;html=1;" vertex="1" parent="1">
          <mxGeometry x="770" y="1550" width="120" height="80" as="geometry" />
        </mxCell>
        <mxCell id="nlR87VBrG_4q2SOE0Lj9-19" value="Inserimento kart" style="ellipse;whiteSpace=wrap;html=1;" vertex="1" parent="1">
          <mxGeometry x="690" y="1270" width="120" height="80" as="geometry" />
        </mxCell>
        <mxCell id="nlR87VBrG_4q2SOE0Lj9-20" value="Inserimento pezzi di ricambio" style="ellipse;whiteSpace=wrap;html=1;" vertex="1" parent="1">
          <mxGeometry x="490" y="1270" width="120" height="80" as="geometry" />
        </mxCell>
        <mxCell id="gfcT5T_3TDsyRO5DiEZ5-22" value="" style="endArrow=classic;html=1;rounded=0;entryX=0.5;entryY=0;entryDx=0;entryDy=0;" edge="1" parent="1" target="nlR87VBrG_4q2SOE0Lj9-3">
          <mxGeometry width="50" height="50" relative="1" as="geometry">
            <mxPoint x="630" y="160" as="sourcePoint" />
            <mxPoint x="630" y="200" as="targetPoint" />
          </mxGeometry>
        </mxCell>
        <mxCell id="gfcT5T_3TDsyRO5DiEZ5-23" value="" style="endArrow=classic;html=1;rounded=0;entryX=0.5;entryY=0;entryDx=0;entryDy=0;" edge="1" parent="1" target="nlR87VBrG_4q2SOE0Lj9-5">
          <mxGeometry width="50" height="50" relative="1" as="geometry">
            <mxPoint x="730" y="150" as="sourcePoint" />
            <mxPoint x="630" y="200" as="targetPoint" />
          </mxGeometry>
        </mxCell>
        <mxCell id="gfcT5T_3TDsyRO5DiEZ5-24" value="" style="endArrow=classic;html=1;rounded=0;entryX=0.5;entryY=0;entryDx=0;entryDy=0;" edge="1" parent="1" target="nlR87VBrG_4q2SOE0Lj9-6">
          <mxGeometry width="50" height="50" relative="1" as="geometry">
            <mxPoint x="750" y="130" as="sourcePoint" />
            <mxPoint x="630" y="200" as="targetPoint" />
          </mxGeometry>
        </mxCell>
        <mxCell id="gfcT5T_3TDsyRO5DiEZ5-25" value="" style="endArrow=classic;html=1;rounded=0;entryX=0.567;entryY=0.017;entryDx=0;entryDy=0;entryPerimeter=0;" edge="1" parent="1" target="nlR87VBrG_4q2SOE0Lj9-2">
          <mxGeometry width="50" height="50" relative="1" as="geometry">
            <mxPoint x="590" y="130" as="sourcePoint" />
            <mxPoint x="630" y="200" as="targetPoint" />
          </mxGeometry>
        </mxCell>
        <mxCell id="gfcT5T_3TDsyRO5DiEZ5-26" value="" style="endArrow=classic;html=1;rounded=0;entryX=0.5;entryY=0;entryDx=0;entryDy=0;" edge="1" parent="1" target="nlR87VBrG_4q2SOE0Lj9-1">
          <mxGeometry width="50" height="50" relative="1" as="geometry">
            <mxPoint x="610" y="150" as="sourcePoint" />
            <mxPoint x="630" y="200" as="targetPoint" />
          </mxGeometry>
        </mxCell>
        <mxCell id="gfcT5T_3TDsyRO5DiEZ5-27" value="" style="endArrow=classic;html=1;rounded=0;entryX=0.5;entryY=0;entryDx=0;entryDy=0;" edge="1" parent="1" target="nlR87VBrG_4q2SOE0Lj9-4">
          <mxGeometry width="50" height="50" relative="1" as="geometry">
            <mxPoint x="690" y="160" as="sourcePoint" />
            <mxPoint x="630" y="200" as="targetPoint" />
          </mxGeometry>
        </mxCell>
        <mxCell id="nlR87VBrG_4q2SOE0Lj9-23" value="" style="endArrow=classic;html=1;rounded=0;entryX=0.5;entryY=0;entryDx=0;entryDy=0;" edge="1" parent="1" target="nlR87VBrG_4q2SOE0Lj9-11">
          <mxGeometry width="50" height="50" relative="1" as="geometry">
            <mxPoint x="620" y="430" as="sourcePoint" />
            <mxPoint x="630" y="360" as="targetPoint" />
          </mxGeometry>
        </mxCell>
        <mxCell id="9mkjYFQbn9lqvL051gFr-1" value="" style="endArrow=classic;html=1;rounded=0;entryX=0.5;entryY=0;entryDx=0;entryDy=0;" edge="1" parent="1" target="nlR87VBrG_4q2SOE0Lj9-12">
          <mxGeometry width="50" height="50" relative="1" as="geometry">
            <mxPoint x="620" y="440" as="sourcePoint" />
            <mxPoint x="690" y="360" as="targetPoint" />
          </mxGeometry>
        </mxCell>
        <mxCell id="nlR87VBrG_4q2SOE0Lj9-24" value="" style="endArrow=classic;html=1;rounded=0;entryX=1;entryY=1;entryDx=0;entryDy=0;" edge="1" parent="1" target="nlR87VBrG_4q2SOE0Lj9-2">
          <mxGeometry width="50" height="50" relative="1" as="geometry">
            <mxPoint x="610" y="410" as="sourcePoint" />
            <mxPoint x="380" y="410" as="targetPoint" />
          </mxGeometry>
        </mxCell>
        <mxCell id="9mkjYFQbn9lqvL051gFr-2" value="" style="endArrow=classic;html=1;rounded=0;entryX=0.5;entryY=0;entryDx=0;entryDy=0;" edge="1" parent="1" target="nlR87VBrG_4q2SOE0Lj9-13">
          <mxGeometry width="50" height="50" relative="1" as="geometry">
            <mxPoint x="650" y="460" as="sourcePoint" />
            <mxPoint x="690" y="360" as="targetPoint" />
          </mxGeometry>
        </mxCell>
        <mxCell id="9mkjYFQbn9lqvL051gFr-3" value="" style="endArrow=classic;html=1;rounded=0;entryX=0.5;entryY=0;entryDx=0;entryDy=0;" edge="1" parent="1" target="nlR87VBrG_4q2SOE0Lj9-14">
          <mxGeometry width="50" height="50" relative="1" as="geometry">
            <mxPoint x="690" y="440" as="sourcePoint" />
            <mxPoint x="690" y="360" as="targetPoint" />
          </mxGeometry>
        </mxCell>
        <mxCell id="9mkjYFQbn9lqvL051gFr-4" value="" style="endArrow=classic;html=1;rounded=0;entryX=0.5;entryY=0;entryDx=0;entryDy=0;" edge="1" parent="1" target="nlR87VBrG_4q2SOE0Lj9-15">
          <mxGeometry width="50" height="50" relative="1" as="geometry">
            <mxPoint x="690" y="430" as="sourcePoint" />
            <mxPoint x="690" y="360" as="targetPoint" />
          </mxGeometry>
        </mxCell>
        <mxCell id="9mkjYFQbn9lqvL051gFr-5" value="" style="endArrow=classic;html=1;rounded=0;entryX=0.5;entryY=0;entryDx=0;entryDy=0;" edge="1" parent="1" target="nlR87VBrG_4q2SOE0Lj9-7">
          <mxGeometry width="50" height="50" relative="1" as="geometry">
            <mxPoint x="650" y="710" as="sourcePoint" />
            <mxPoint x="690" y="690" as="targetPoint" />
          </mxGeometry>
        </mxCell>
        <mxCell id="9mkjYFQbn9lqvL051gFr-6" value="" style="endArrow=classic;html=1;rounded=0;entryX=0.5;entryY=0;entryDx=0;entryDy=0;" edge="1" parent="1" target="nlR87VBrG_4q2SOE0Lj9-8">
          <mxGeometry width="50" height="50" relative="1" as="geometry">
            <mxPoint x="610" y="930" as="sourcePoint" />
            <mxPoint x="630" y="980" as="targetPoint" />
          </mxGeometry>
        </mxCell>
        <mxCell id="9mkjYFQbn9lqvL051gFr-7" value="" style="endArrow=classic;html=1;rounded=0;entryX=0.5;entryY=0;entryDx=0;entryDy=0;" edge="1" parent="1" target="nlR87VBrG_4q2SOE0Lj9-10">
          <mxGeometry width="50" height="50" relative="1" as="geometry">
            <mxPoint x="690" y="930" as="sourcePoint" />
            <mxPoint x="830" y="920" as="targetPoint" />
          </mxGeometry>
        </mxCell>
        <mxCell id="9mkjYFQbn9lqvL051gFr-9" value="" style="endArrow=classic;html=1;rounded=0;entryX=0.5;entryY=0;entryDx=0;entryDy=0;" edge="1" parent="1" target="nlR87VBrG_4q2SOE0Lj9-9">
          <mxGeometry width="50" height="50" relative="1" as="geometry">
            <mxPoint x="650" y="940" as="sourcePoint" />
            <mxPoint x="630" y="980" as="targetPoint" />
          </mxGeometry>
        </mxCell>
        <mxCell id="9mkjYFQbn9lqvL051gFr-11" value="" style="endArrow=classic;html=1;rounded=0;entryX=0.5;entryY=0;entryDx=0;entryDy=0;" edge="1" parent="1" target="nlR87VBrG_4q2SOE0Lj9-20">
          <mxGeometry width="50" height="50" relative="1" as="geometry">
            <mxPoint x="610" y="1230" as="sourcePoint" />
            <mxPoint x="640" y="1080" as="targetPoint" />
          </mxGeometry>
        </mxCell>
        <mxCell id="9mkjYFQbn9lqvL051gFr-12" value="" style="endArrow=classic;html=1;rounded=0;entryX=0.5;entryY=0;entryDx=0;entryDy=0;" edge="1" parent="1" target="nlR87VBrG_4q2SOE0Lj9-19">
          <mxGeometry width="50" height="50" relative="1" as="geometry">
            <mxPoint x="690" y="1230" as="sourcePoint" />
            <mxPoint x="640" y="1080" as="targetPoint" />
          </mxGeometry>
        </mxCell>
        <mxCell id="9mkjYFQbn9lqvL051gFr-14" value="" style="endArrow=classic;html=1;rounded=0;entryX=0.5;entryY=0;entryDx=0;entryDy=0;" edge="1" parent="1" target="nlR87VBrG_4q2SOE0Lj9-16">
          <mxGeometry width="50" height="50" relative="1" as="geometry">
            <mxPoint x="610" y="1470" as="sourcePoint" />
            <mxPoint x="640" y="1380" as="targetPoint" />
          </mxGeometry>
        </mxCell>
        <mxCell id="9mkjYFQbn9lqvL051gFr-15" value="" style="endArrow=classic;html=1;rounded=0;entryX=0.5;entryY=0;entryDx=0;entryDy=0;" edge="1" parent="1" target="nlR87VBrG_4q2SOE0Lj9-17">
          <mxGeometry width="50" height="50" relative="1" as="geometry">
            <mxPoint x="650" y="1480" as="sourcePoint" />
            <mxPoint x="640" y="1380" as="targetPoint" />
          </mxGeometry>
        </mxCell>
        <mxCell id="9mkjYFQbn9lqvL051gFr-16" value="" style="endArrow=classic;html=1;rounded=0;entryX=0.5;entryY=0;entryDx=0;entryDy=0;" edge="1" parent="1" target="nlR87VBrG_4q2SOE0Lj9-18">
          <mxGeometry width="50" height="50" relative="1" as="geometry">
            <mxPoint x="690" y="1470" as="sourcePoint" />
            <mxPoint x="640" y="1380" as="targetPoint" />
          </mxGeometry>
        </mxCell>
      </root>
    </mxGraphModel>
  </diagram>
</mxfile>
